<?xml version="1.0" encoding="utf-8"?>
<!-- Generator: Adobe Illustrator 24.1.0, SVG Export Plug-In . SVG Version: 6.00 Build 0)  -->
<svg version="1.1" id="Layer_1" xmlns="http://www.w3.org/2000/svg" xmlns:xlink="http://www.w3.org/1999/xlink" x="0px" y="0px"
	 viewBox="0 0 547.5 86.9" style="enable-background:new 0 0 547.5 86.9;" xml:space="preserve">
<style type="text/css">
	.st0{clip-path:url(#SVGID_2_);}
	.st1{clip-path:url(#SVGID_4_);}
</style>
<g>
	<g>
		<defs>
			<rect id="SVGID_1_" y="0" width="547.5" height="87.4"/>
		</defs>
		<clipPath id="SVGID_2_">
			<use xlink:href="#SVGID_1_"  style="overflow:visible;"/>
		</clipPath>
		<path class="st0" d="M359.6,86.9V75.7l-9.2-15.3h6l6.1,10.4l6.1-10.4h6l-9.2,15.3v11.3H359.6z M324.8,86.9V65.2h-7.9v-4.9h21.7
			v4.9h-7.9v21.7L324.8,86.9L324.8,86.9z M281.7,76.8V60.3h5.9v16.3c0,3.9,1.5,6,5,6c3.5,0,4.9-2.1,4.9-6V60.3h5.8v16.4
			c0,6.5-3.3,10.6-10.7,10.6C285,87.4,281.7,83.3,281.7,76.8 M253.3,76.8h6.3l-3.1-9.1h-0.1L253.3,76.8z M244.4,86.9l9.4-26.7h5.6
			l9.4,26.7h-5.9l-2-5.9h-9.1l-2,5.9H244.4z M213,86.9V60.3h18.1v4.9h-12.3v5.7h8.9v4.6h-8.9v6.6h12.9v4.7L213,86.9L213,86.9z
			 M182.3,82.5h4.7c3.2,0,4.7-1.3,4.7-3.6c0-2.3-1.7-3.5-4.9-3.5h-4.5V82.5z M182.3,71.3h4.3c3.1,0,4.5-1.1,4.5-3.2
			c0-2.1-1.3-3.2-4.4-3.2h-4.4V71.3z M176.6,86.9V60.3h10.6c4.9,0,9.5,1.2,9.5,6.6c0,3.8-2.4,5.6-5.1,6.1v0.1
			c3.2,0.6,5.8,2.3,5.8,6.5c0,5.4-4.7,7.3-9.7,7.3L176.6,86.9L176.6,86.9z"/>
	</g>
	<g>
		<defs>
			<rect id="SVGID_3_" y="0" width="547.5" height="87.4"/>
		</defs>
		<clipPath id="SVGID_4_">
			<use xlink:href="#SVGID_3_"  style="overflow:visible;"/>
		</clipPath>
		<path class="st1" d="M547.4,11.7h-0.8c-0.3-2.8-0.5-3.7-4.9-3.7h-7v26.9c0,5.7,0.7,6.1,4.7,6.1v1h-12.3v-0.8
			c3.1,0,3.6-1.5,3.6-5.2v-28h-6.2c-4.9,0-5.8,0.2-6,3.7h-1l-0.2-6.1c0,0,4.9,0.3,7,0.3h16.5c2.9,0,5.2,0,6.6-0.3L547.4,11.7z
			 M510.8,35.5l-0.2,6.3h-24.1v-1c2.4,0,3.6-0.6,3.6-5.3V9.6c0-2.3-1.6-3.1-4.2-3.1v-1c1.9,0.2,4.9,0.3,7.4,0.3h10.2
			c1,0,5.8-0.2,5.8-0.2l-0.2,6.1h-1c-0.2-3.7-2.4-4-6.8-4h-7c-0.5,0-0.5,0.2-0.5,0.5v13c0,0.3,0,0.5,0.3,0.5h8.6
			c1.6,0,2.3-0.5,2.4-1.9h1v7.6h-1c-0.2-1.6-0.2-3.2-2.9-3.6c-1.5-0.2-7.3-0.3-8.1-0.3c-0.3,0-0.3,0.2-0.3,0.3v13.8
			c0.2,2.4,0.2,2.4,6.3,2.4c1.9,0,6.3,0,7.5-0.5c1.5-0.6,1.9-1.9,2.1-4L510.8,35.5L510.8,35.5z M481,41.8h-4.2c-5,0-6.8-3.4-9.5-7.6
			c-2.3-3.6-4.7-8.7-7.8-8.9l-2.3-0.2c-0.3,0-0.3,0-0.3,0.5V35c0,5.7,1,6,4.7,6v1h-12.1v-0.8c2.9-0.2,3.6-0.5,3.6-6V9.9
			c0-2.6-1.6-3.2-4.2-3.2v-1h12.6c6.8,0,11.3,3.1,11.3,8.9c0,4.7-3.9,8.7-8.1,10c3.6,1.3,6.5,9.5,9.5,12.6c3.1,3.2,4.2,3.6,6.8,3.6
			V41.8z M461.6,24c4.4,0,7.1-3.2,7.1-8.3c0-5.3-3.2-8.4-8.3-8.4c-2.8,0-3.6,0-3.6,0.8v14.7c0,0.5,0,0.6,0.8,0.8
			C458,23.8,460.4,24,461.6,24 M441.2,35.1c-1.8,4.2-6,7.1-12.6,7.1c-11.3,0-18.3-7.8-18.3-18.6c0-10,7.1-18.8,18.9-18.8
			c3.6,0,6.8,0.6,10.7,2.3c0.5,0.2,0.6,0.3,0.6,0.8l-0.3,7.3h-0.8c0-2.1-0.5-4.5-2.1-5.8c-2.3-1.8-4.7-2.8-8.9-2.8
			c-9.5,0-13.9,7.3-13.9,16s4.7,17.6,14.6,17.6c5.5,0,9.2-2.1,11-5.7c0.5-0.8,0.5-1,1-0.8C441.5,34.2,441.5,34.3,441.2,35.1
			 M402.6,35.5l-0.2,6.3h-24.1v-1c2.4,0,3.6-0.6,3.6-5.3V9.6c0-2.3-1.6-3.1-4.2-3.1v-1c1.9,0.2,4.9,0.3,7.5,0.3h10.2
			c1,0,5.8-0.2,5.8-0.2l-0.2,6.1h-1c-0.2-3.7-2.4-4-6.8-4h-7c-0.5,0-0.5,0.2-0.5,0.5v13c0,0.3,0,0.5,0.3,0.5h8.6
			c1.6,0,2.3-0.5,2.4-1.9h1v7.6h-1c-0.2-1.6-0.2-3.2-2.9-3.6c-1.5-0.2-7.3-0.3-8.1-0.3c-0.3,0-0.3,0.2-0.3,0.3v13.8
			C386,40,386,40,392.1,40c1.9,0,6.3,0,7.5-0.5c1.5-0.6,1.9-1.9,2.1-4L402.6,35.5L402.6,35.5z M346.3,40.2v-7.5h1
			c0.5,6.1,4.7,8.1,9.5,8.1c5.7,0,8.9-3.7,8.9-7.5c0-4.4-2.9-7.1-8.7-10.9c-7.9-5-9.7-8.9-9.7-12.5c0-5.8,4.4-10,11.8-10
			c4,0,8.6,1.6,8.6,1.6v6.1h-1c-0.2-1-0.3-2.1-1.1-3.2c-0.3-0.6-2.1-3.1-7.8-3.1c-4.4,0-7.6,2.9-7.6,6.8s2.9,6.1,9.4,10.4
			c6.3,4.2,9.4,8.3,9.4,12.5c0,10.5-10.5,11.2-13.1,11.2C349.7,42.4,346.3,40.2,346.3,40.2 M305,42.3c-2.9,0-5.7-0.2-8.6-1.9v-7h1
			c0.2,5.3,3.7,7.1,8.1,7.1c4.9,0,7.5-3.2,7.5-6.1c0-3.9-2.3-6.1-7.5-9.4c-7-4.4-8.7-7.6-8.7-11.2c0-5,3.9-8.9,10.2-8.9
			c3.4,0,5.7,0.6,7.9,1.5V12h-1c-0.2-1-0.3-1.9-1-3.1c-0.3-0.5-1.8-2.6-6.6-2.6c-3.7,0-6.5,2.4-6.5,5.8c0,3.2,2.4,5.2,8.1,8.9
			c5.5,3.7,8.3,7.3,8.3,11C316.4,38.2,311.8,42.3,305,42.3 M288.2,5.8c0,3.2-2.3,5.5-5.8,6V11c2.8-0.5,3.9-2.1,3.9-3.4
			c0-1.1-0.6-1.9-2.1-2.8c-1-0.5-1.6-1-1.6-1.9s1-1.8,1.9-1.8C286.2,1.3,288.2,3.1,288.2,5.8 M271.2,41c1.8-0.2,2.4-0.5,2.4-1.1
			c0-0.5,0-0.6-0.5-1.9l-3.7-10c-0.2-0.2-0.2-0.3-0.5-0.3h-10.2c-0.3,0-0.3,0.2-0.5,0.3l-2.6,7.6c-0.3,0.8-1,2.8-1,3.9
			c0,1,1,1.5,2.9,1.5v1h-10.5l0.2-0.8c3.1-0.3,4-1.5,5.2-4.4l11-29.8c0.6-1.6,0.6-1.6,1-1.6s0.5,0.2,1,1.6l11.3,29.5
			c1.1,2.9,2.3,4.7,5.5,4.7l0.2,1h-11.5v-1L271.2,41L271.2,41z M268.6,25.7L268.6,25.7l-4.5-13.1c-0.2-0.3-0.2-0.5-0.3-0.5
			s-0.3,0.2-0.3,0.5l-4.4,12.8v0.2c0,0.2,0.2,0.2,0.2,0.2L268.6,25.7C268.4,25.7,268.6,25.7,268.6,25.7 M240.1,41.8h-12.3V41h0.2
			c3.4,0,3.4-2.3,3.4-6.6V11.5c0-4.4-0.5-5-3.7-5.2V5.5H239v1c-3.6,0-3.6,1-3.6,6.6v21.4c0,5.3,0.3,6.5,4.7,6.5L240.1,41.8
			L240.1,41.8z M220.2,41.8H216c-5,0-6.8-3.4-9.5-7.6c-2.3-3.6-4.7-8.7-7.8-8.9l-2.3-0.2c-0.3,0-0.3,0-0.3,0.5V35c0,5.7,1,6,4.7,6v1
			h-12.1v-0.8c2.9-0.2,3.6-0.5,3.6-6V9.9c0-2.6-1.6-3.2-4.2-3.2v-1h12.6c6.8,0,11.3,3.1,11.3,8.9c0,4.7-3.9,8.7-8.1,10
			c3.6,1.3,6.5,9.5,9.6,12.6c3.1,3.2,4.2,3.6,6.8,3.6L220.2,41.8L220.2,41.8z M200.8,24c4.4,0,7.1-3.2,7.1-8.3
			c0-5.3-3.2-8.4-8.3-8.4c-2.8,0-3.6,0-3.6,0.8v14.7c0,0.5,0,0.6,0.8,0.8C197.2,23.8,199.6,24,200.8,24 M161.1,42.4
			c-12.9,0-18.5-10.2-18.5-18.8c0-7.6,5.5-18.6,18.8-18.6c10.7,0,18.6,6.8,18.6,17.8C180,33.5,172.6,42.4,161.1,42.4 M160.9,6.6
			c-7.9,0-13.9,5.2-13.9,15.7c0,11,6.6,18.1,15.2,18.1c4.2,0,13.1-2.4,13.1-16.4C175.5,12.8,168.5,6.6,160.9,6.6 M136.5,11.7h-0.8
			c-0.3-2.8-0.5-3.7-4.9-3.7h-7v26.9c0,5.7,0.6,6.1,4.7,6.1v1h-12.3v-0.8c3.1,0,3.6-1.5,3.6-5.2v-28h-6c-4.9,0-5.8,0.2-6,3.7h-1
			l-0.2-6.1c0,0,4.9,0.3,7,0.3h16.5c2.9,0,5.2,0,6.6-0.3L136.5,11.7z M98.9,35.1c-1.8,4.2-6,7.1-12.6,7.1C75,42.3,68,34.5,68,23.6
			c0-10,7.1-18.8,18.9-18.8c3.6,0,6.8,0.6,10.7,2.3c0.5,0.2,0.7,0.3,0.7,0.8l-0.3,7.3h-0.8c0-2.1-0.5-4.5-2.1-5.8
			c-2.3-1.8-4.7-2.8-8.9-2.8c-9.6,0-13.9,7.3-13.9,16s4.7,17.6,14.6,17.6c5.5,0,9.2-2.1,11-5.7c0.3-0.8,0.5-1,1-0.8
			C99.2,34.2,99.2,34.3,98.9,35.1 M60.6,41.8H48.2V41h0.2c3.4,0,3.4-2.3,3.4-6.6V11.5c0-4.4-0.5-5-3.7-5.2V5.5h11.3v1
			c-3.6,0-3.6,1-3.6,6.6v21.4c0,5.3,0.3,6.5,4.7,6.5C60.6,41,60.6,41.8,60.6,41.8z M5.5,5.2C4.2,1.9,2.8,1.3,0,1.3V0.5h12.3v0.6
			c-2.1,0.2-2.9,0.5-2.9,1.3c0,1.1,0.5,2.1,12.5,33.4L33.5,6.3c0.5-1.5,1.1-2.9,1.1-3.9c0-1.3-1.6-1.3-2.9-1.3V0.3h10.4v0.8
			c-3.1,0.3-4,1-5.2,3.9L21.7,41.3c-0.3,0.6-0.5,1-0.8,1s-0.7-0.3-0.8-0.8L5.5,5.2z"/>
	</g>
</g>
</svg>
